<?xml version="1.0" encoding="utf-8"?>
<svg xmlns="http://www.w3.org/2000/svg" xmlns:ns1="http://sodipodi.sourceforge.net/DTD/sodipodi-0.dtd" xmlns:ns2="http://www.inkscape.org/namespaces/inkscape" id="svg4" version="1.1" viewBox="0 0 1400 540" ns1:docname="titlepage.svg" ns2:version="1.4.2 (f4327f4, 2025-05-13)">
	<defs id="defs4"/>
	<ns1:namedview bordercolor="#000000" borderopacity="0.25" id="namedview4" pagecolor="#ffffff" ns2:current-layer="svg4" ns2:cx="525.2608" ns2:cy="270.19374" ns2:deskcolor="#d1d1d1" ns2:pagecheckerboard="0" ns2:pageopacity="0.0" ns2:showpageshadow="2" ns2:window-height="830" ns2:window-maximized="1" ns2:window-width="1440" ns2:window-x="-6" ns2:window-y="-6" ns2:zoom="0.95857143"/>
	<title id="title1">The titlepage for the Standard Ebooks edition of The Gospel According to Matthew, by Matthew</title>
	<g aria-label="THE GOSPEL">
		<path d="M378.83,68.25l0.00-15.44l54.27,0.00l0.00,15.44l-18.34,0.00l0.00,61.75l-17.59,0.00l0.00-61.75l-18.34,0.00z"/>
		<path d="M462.06,99.03l0.00,30.97l-17.59,0.00l0.00-77.19l17.59,0.00l0.00,30.78l24.89,0.00l0.00-30.78l17.59,0.00l0.00,77.19l-17.59,0.00l0.00-30.97l-24.89,0.00z"/>
		<path d="M564.93,52.81l0.00,15.44l-26.57,0.00l0.00,15.35l25.45,0.00l0.00,15.44l-25.45,0.00l0.00,15.53l26.57,0.00l0.00,15.44l-44.16,0.00l0.00-77.19l44.16,0.00z"/>
		<path d="M680.38,86.77l0.00,16.75c-4.21,19.56-20.49,27.88-35.65,27.88c-20.77,0.00-37.61-17.87-37.61-39.95c0.00-22.18,15.91-40.05,37.61-40.05c13.57,0.00,23.02,5.05,29.75,13.19l-11.51,12.63c-4.49-7.20-10.39-9.92-17.22-9.92c-10.85,0.00-19.65,10.76-19.65,24.14c0.00,13.10,8.80,23.77,19.65,23.77c8.42,0.00,16.75-5.43,16.75-14.88l-17.78,0.00l0.00-13.57l35.65,0.00z"/>
		<path d="M689.68,91.36c0.00-22.55,17.68-39.95,38.92-39.95c21.43,0.00,38.83,17.40,38.83,39.95s-16.65,40.05-38.83,40.05c-22.83,0.00-38.92-17.50-38.92-40.05z  M708.68,91.36c0.00,11.51,5.52,23.02,19.93,23.02c14.04,0.00,19.84-11.51,19.84-23.02s-6.18-23.02-19.84-23.02c-13.57,0.00-19.93,11.51-19.93,23.02z"/>
		<path d="M808.65,51.40c14.04,0.00,23.95,7.30,23.95,7.30l-7.11,14.04s-7.67-5.33-15.63-5.33c-5.99,0.00-9.17,2.71-9.17,6.92c0.00,4.30,7.30,7.39,16.09,11.13c8.61,3.65,18.06,10.95,18.06,21.05c0.00,18.43-14.04,24.89-29.10,24.89c-18.06,0.00-29.01-10.20-29.01-10.20l8.80-14.78s10.29,8.70,18.90,8.70c3.84,0.00,11.13-0.37,11.13-7.58c0.00-5.61-8.23-8.14-17.40-12.73c-9.26-4.58-14.69-11.79-14.69-19.84c0.00-14.41,12.73-23.58,25.17-23.58z"/>
		<path d="M848.08,52.81l28.16,0.00c15.06,0.00,26.39,7.77,26.39,23.77c0.00,15.91-11.32,24.80-26.39,24.80l-10.57,0.00l0.00,28.63l-17.59,0.00l0.00-77.19z  M865.67,87.33l4.96,0.00c6.92,0.00,13.47-2.34,13.47-10.20c0.00-7.95-6.55-10.29-13.47-10.29l-4.96,0.00l0.00,20.49z"/>
		<path d="M959.56,52.81l0.00,15.44l-26.57,0.00l0.00,15.35l25.45,0.00l0.00,15.44l-25.45,0.00l0.00,15.53l26.57,0.00l0.00,15.44l-44.16,0.00l0.00-77.19l44.16,0.00z"/>
		<path d="M992.25,52.81l0.00,61.75l26.57,0.00l0.00,15.44l-44.16,0.00l0.00-77.19l17.59,0.00z"/>
	</g>
	<g aria-label="ACCORDING">
		<path d="M418.29,152.81l31.16,77.19l-18.90,0.00l-5.71-15.44l-29.38,0.00l-5.71,15.44l-18.90,0.00l31.16-77.19l16.28,0.00z  M418.85,199.12l-8.61-22.46l-0.19,0.00l-8.61,22.46l17.40,0.00z"/>
		<path d="M495.53,214.09c8.98,0.00,15.16-4.77,15.16-4.77l7.49,14.97s-8.61,7.11-25.36,7.11c-21.80,0.00-41.82-17.78-41.82-39.86c0.00-22.18,19.93-40.14,41.82-40.14c16.75,0.00,25.36,7.11,25.36,7.11l-7.49,14.97s-6.18-4.77-15.16-4.77c-17.68,0.00-25.45,12.35-25.45,22.64c0.00,10.39,7.77,22.74,25.45,22.74z"/>
		<path d="M570.98,214.09c8.98,0.00,15.16-4.77,15.16-4.77l7.49,14.97s-8.61,7.11-25.36,7.11c-21.80,0.00-41.82-17.78-41.82-39.86c0.00-22.18,19.93-40.14,41.82-40.14c16.75,0.00,25.36,7.11,25.36,7.11l-7.49,14.97s-6.18-4.77-15.16-4.77c-17.68,0.00-25.45,12.35-25.45,22.64c0.00,10.39,7.77,22.74,25.45,22.74z"/>
		<path d="M601.90,191.36c0.00-22.55,17.68-39.95,38.92-39.95c21.43,0.00,38.83,17.40,38.83,39.95s-16.65,40.05-38.83,40.05c-22.83,0.00-38.92-17.50-38.92-40.05z  M620.89,191.36c0.00,11.51,5.52,23.02,19.93,23.02c14.04,0.00,19.84-11.51,19.84-23.02s-6.18-23.02-19.84-23.02c-13.57,0.00-19.93,11.51-19.93,23.02z"/>
		<path d="M692.42,152.81l27.60,0.00c14.32,0.00,25.17,7.77,25.17,22.92c0.00,11.60-6.36,19.37-15.81,22.36l26.57,31.91l-22.36,0.00l-23.58-30.50l0.00,30.50l-17.59,0.00l0.00-77.19z  M710.01,187.05l2.06,0.00c6.64,0.00,14.60-0.47,14.60-10.11s-7.95-10.11-14.60-10.11l-2.06,0.00l0.00,20.21z"/>
		<path d="M764.42,152.81l22.36,0.00c21.15,0.00,38.92,16.09,38.92,38.55c0.00,22.55-17.68,38.64-38.92,38.64l-22.36,0.00l0.00-77.19z  M782.01,214.28l2.71,0.00c13.01,0.00,21.89-9.92,21.99-22.83c0.00-12.91-8.89-22.92-21.99-22.92l-2.71,0.00l0.00,45.75z"/>
		<path d="M856.06,152.81l0.00,77.19l-17.59,0.00l0.00-77.19l17.59,0.00z"/>
		<path d="M889.88,182.09l0.00,47.91l-17.59,0.00l0.00-77.19l17.59,0.00l30.69,47.91l0.19,0.00l0.00-47.91l17.59,0.00l0.00,77.19l-17.59,0.00l-30.69-47.91l-0.19,0.00z"/>
		<path d="M1024.37,186.77l0.00,16.75c-4.21,19.56-20.49,27.88-35.65,27.88c-20.77,0.00-37.61-17.87-37.61-39.95c0.00-22.18,15.91-40.05,37.61-40.05c13.57,0.00,23.02,5.05,29.75,13.19l-11.51,12.63c-4.49-7.20-10.39-9.92-17.22-9.92c-10.85,0.00-19.65,10.76-19.65,24.14c0.00,13.10,8.80,23.77,19.65,23.77c8.42,0.00,16.75-5.43,16.75-14.88l-17.78,0.00l0.00-13.57l35.65,0.00z"/>
	</g>
	<g aria-label="TO MATTHEW">
		<path d="M347.72,268.25l0.00-15.44l54.27,0.00l0.00,15.44l-18.34,0.00l0.00,61.75l-17.59,0.00l0.00-61.75l-18.34,0.00z"/>
		<path d="M406.90,291.36c0.00-22.55,17.68-39.95,38.92-39.95c21.43,0.00,38.83,17.40,38.83,39.95s-16.65,40.05-38.83,40.05c-22.83,0.00-38.92-17.50-38.92-40.05z  M425.89,291.36c0.00,11.51,5.52,23.02,19.93,23.02c14.04,0.00,19.84-11.51,19.84-23.02s-6.18-23.02-19.84-23.02c-13.57,0.00-19.93,11.51-19.93,23.02z"/>
		<path d="M591.77,330.00l-3.65-45.75l-0.47,0.00l-15.81,45.29l-10.48,0.00l-15.81-45.29l-0.47,0.00l-3.65,45.75l-17.59,0.00l6.92-77.19l18.71,0.00l17.12,44.54l17.12-44.54l18.71,0.00l6.92,77.19l-17.59,0.00z"/>
		<path d="M660.68,252.81l31.16,77.19l-18.90,0.00l-5.71-15.44l-29.38,0.00l-5.71,15.44l-18.90,0.00l31.16-77.19l16.28,0.00z  M661.24,299.12l-8.61-22.46l-0.19,0.00l-8.61,22.46l17.40,0.00z"/>
		<path d="M690.48,268.25l0.00-15.44l54.27,0.00l0.00,15.44l-18.34,0.00l0.00,61.75l-17.59,0.00l0.00-61.75l-18.34,0.00z"/>
		<path d="M752.55,268.25l0.00-15.44l54.27,0.00l0.00,15.44l-18.34,0.00l0.00,61.75l-17.59,0.00l0.00-61.75l-18.34,0.00z"/>
		<path d="M835.77,299.03l0.00,30.97l-17.59,0.00l0.00-77.19l17.59,0.00l0.00,30.78l24.89,0.00l0.00-30.78l17.59,0.00l0.00,77.19l-17.59,0.00l0.00-30.97l-24.89,0.00z"/>
		<path d="M938.65,252.81l0.00,15.44l-26.57,0.00l0.00,15.35l25.45,0.00l0.00,15.44l-25.45,0.00l0.00,15.53l26.57,0.00l0.00,15.44l-44.16,0.00l0.00-77.19l44.16,0.00z"/>
		<path d="M1012.98,330.00l-12.35-43.32l-12.35,43.32l-19.56,0.00l-21.99-77.19l19.56,0.00l13.19,52.96l0.47,0.00l14.04-52.96l13.29,0.00l14.04,52.96l0.47,0.00l13.19-52.96l19.46,0.00l-21.99,77.19l-19.46,0.00z"/>
	</g>
	<g aria-label="King James Version">
		<path d="M362.10,490.00l-18.18,0.00l-21.33-24.56l0.00,24.56l-13.19,0.00l0.00-57.89l13.19,0.00l0.00,23.65l19.86-23.65l16.00,0.00l-23.30,27.44z"/>
		<path d="M376.01,431.75c4.07,0.00,7.37,3.30,7.37,7.37s-3.30,7.37-7.37,7.37s-7.37-3.30-7.37-7.37s3.30-7.37,7.37-7.37z  M369.62,454.00l0.00,36.00l12.42,0.00l0.00-36.00l-12.42,0.00z"/>
		<path d="M395.82,490.00l0.00-36.00l12.42,0.00l0.00,3.79l0.14,0.00c2.81-2.81,6.39-4.84,10.32-4.84c6.60,0.00,15.79,3.30,15.79,13.33l0.00,23.72l-12.42,0.00l0.00-20.35c0.00-3.58-2.46-7.02-6.46-7.02c-3.72,0.00-7.37,3.44-7.37,7.02l0.00,20.35l-12.42,0.00z"/>
		<path d="M445.59,498.84l10.18-4.98c1.33,2.18,4.35,4.63,9.75,4.63c3.44,0.00,8.77-2.04,8.77-8.42l0.00-2.67c-2.67,2.95-6.88,3.65-11.79,3.65c-10.53,0.00-17.89-8.49-17.89-19.02s7.37-19.09,17.89-19.09c4.77,0.00,8.63,1.54,11.58,4.28l0.21,0.00l0.00-3.23l12.42,0.00l0.00,36.98c0.00,12.07-8.91,18.32-21.19,18.32c-7.51,0.00-16.14-1.68-19.93-10.46z  M457.80,472.04c0.00,4.91,3.37,8.42,8.42,8.42c4.84,0.00,8.35-3.51,8.35-8.42c0.00-4.98-3.72-8.49-8.35-8.49c-4.70,0.00-8.42,3.51-8.42,8.49z"/>
		<path d="M549.48,432.11l0.00,41.54c0.00,11.37-6.46,17.40-18.04,17.40c-8.28,0.00-13.54-5.54-13.54-5.54l4.21-11.02s4.14,3.93,7.51,3.93c3.79,0.00,6.67-2.32,6.67-8.14l0.00-38.18l13.19,0.00z"/>
		<path d="M559.61,472.04c0.00-10.53,7.37-19.09,17.89-19.09c4.84,0.00,8.84,1.61,11.79,4.49l0.00-3.44l12.42,0.00l0.00,36.00l-12.28,0.00l0.00-4.07l-0.14,0.00c-2.67,2.95-6.88,5.12-11.79,5.12c-10.53,0.00-17.89-8.49-17.89-19.02z  M572.80,472.04c0.00,4.91,3.37,8.42,8.42,8.42c4.84,0.00,8.35-3.51,8.35-8.42c0.00-4.98-3.72-8.49-8.35-8.49c-4.70,0.00-8.42,3.51-8.42,8.49z"/>
		<path d="M615.13,490.00l0.00-36.00l12.42,0.00l0.00,3.79l0.14,0.00c2.81-2.81,6.39-4.84,10.32-4.84c4.77,0.00,10.04,1.75,12.56,6.60c3.79-4.56,8.00-6.60,11.93-6.60c6.60,0.00,14.04,3.30,14.04,13.33l0.00,23.72l-12.42,0.00l0.00-20.35c0.00-3.58-1.89-6.74-6.32-6.74c-3.93,0.00-5.61,2.88-5.75,5.61l0.00,21.47l-12.42,0.00l0.00-20.35c0.00-3.58-1.89-6.74-6.32-6.74c-4.14,0.00-5.75,3.16-5.75,6.04l0.00,21.05l-12.42,0.00z"/>
		<path d="M725.68,473.72l-26.11,0.00c0.00,5.54,4.63,7.44,7.79,7.44c4.00,0.00,5.75-0.77,8.77-4.00l8.98,4.49c-4.07,6.81-10.67,9.40-18.67,9.40c-10.88,0.00-19.79-8.56-19.79-19.02c0.00-10.53,8.91-19.09,19.79-19.09c10.95,0.00,19.30,6.46,19.30,19.09c0.00,0.49,0.00,1.26-0.07,1.68z  M699.92,466.84l13.68,0.00c-0.56-3.79-3.16-5.82-6.81-5.82c-4.28,0.00-6.67,2.53-6.88,5.82z"/>
		<path d="M751.94,452.95c6.95,0.00,12.07,2.81,12.07,2.81l-4.07,8.14s-4.21-2.25-8.00-2.25c-2.74,0.00-3.86,0.49-3.86,2.18c0.00,1.89,2.53,2.46,5.61,3.44c4.77,1.47,10.95,4.14,10.95,11.51c0.00,10.60-9.68,12.28-17.05,12.28c-8.70,0.00-13.89-4.84-13.89-4.84l5.05-8.49s4.91,4.14,8.91,4.14c1.75,0.00,3.86-0.21,3.86-2.60c0.00-2.60-3.93-2.81-8.00-4.91c-3.65-1.89-7.30-4.42-7.30-9.82c0.00-7.37,6.25-11.58,15.72-11.58z"/>
		<path d="M812.11,490.00l-24.28-57.89l14.88,0.00l14.60,38.04l14.60-38.04l14.88,0.00l-24.28,57.89l-10.39,0.00z"/>
		<path d="M885.54,473.72l-26.11,0.00c0.00,5.54,4.63,7.44,7.79,7.44c4.00,0.00,5.75-0.77,8.77-4.00l8.98,4.49c-4.07,6.81-10.67,9.40-18.67,9.40c-10.88,0.00-19.79-8.56-19.79-19.02c0.00-10.53,8.91-19.09,19.79-19.09c10.95,0.00,19.30,6.46,19.30,19.09c0.00,0.49,0.00,1.26-0.07,1.68z  M859.78,466.84l13.68,0.00c-0.56-3.79-3.16-5.82-6.81-5.82c-4.28,0.00-6.67,2.53-6.88,5.82z"/>
		<path d="M896.29,490.00l0.00-36.00l12.42,0.00l0.00,5.19l0.14,0.00s3.93-6.25,11.02-6.25c4.63,0.00,7.86,2.25,7.86,2.25l-5.19,10.53s-2.32-1.96-6.46-1.96c-6.46,0.00-7.37,6.39-7.37,7.30l0.00,18.95l-12.42,0.00z"/>
		<path d="M951.32,452.95c6.95,0.00,12.07,2.81,12.07,2.81l-4.07,8.14s-4.21-2.25-8.00-2.25c-2.74,0.00-3.86,0.49-3.86,2.18c0.00,1.89,2.53,2.46,5.61,3.44c4.77,1.47,10.95,4.14,10.95,11.51c0.00,10.60-9.68,12.28-17.05,12.28c-8.70,0.00-13.89-4.84-13.89-4.84l5.05-8.49s4.91,4.14,8.91,4.14c1.75,0.00,3.86-0.21,3.86-2.60c0.00-2.60-3.93-2.81-8.00-4.91c-3.65-1.89-7.30-4.42-7.30-9.82c0.00-7.37,6.25-11.58,15.72-11.58z"/>
		<path d="M981.59,431.75c4.07,0.00,7.37,3.30,7.37,7.37s-3.30,7.37-7.37,7.37s-7.37-3.30-7.37-7.37s3.30-7.37,7.37-7.37z  M975.20,454.00l0.00,36.00l12.42,0.00l0.00-36.00l-12.42,0.00z"/>
		<path d="M998.80,472.04c0.00-11.23,9.54-19.09,21.68-19.09c11.93,0.00,21.47,7.86,21.47,19.09c0.00,11.09-9.05,19.02-21.47,19.02c-12.98,0.00-21.68-7.93-21.68-19.02z  M1011.99,472.04c0.00,4.91,3.37,8.42,8.42,8.42c4.84,0.00,8.35-3.51,8.35-8.42c0.00-4.98-3.72-8.49-8.35-8.49c-4.70,0.00-8.42,3.51-8.42,8.49z"/>
		<path d="M1052.64,490.00l0.00-36.00l12.42,0.00l0.00,3.79l0.14,0.00c2.81-2.81,6.39-4.84,10.32-4.84c6.60,0.00,15.79,3.30,15.79,13.33l0.00,23.72l-12.42,0.00l0.00-20.35c0.00-3.58-2.46-7.02-6.46-7.02c-3.72,0.00-7.37,3.44-7.37,7.02l0.00,20.35l-12.42,0.00z"/>
	</g>
</svg>
